<svg
   width="807.91431"
   height="809.90576"
   viewBox="0 0 807.91431 809.90576"
   version="1.1"
   id="svg5"
   xmlns="http://www.w3.org/2000/svg"
   xmlns:svg="http://www.w3.org/2000/svg">
  <defs
     id="defs2">
    <marker
       style="overflow:visible"
       id="marker21614"
       refX="0"
       refY="0"
       orient="auto-start-reverse"
       markerWidth="4.1350002"
       markerHeight="3.9973249"
       viewBox="0 0 6.1347524 5.9304951"
       preserveAspectRatio="xMidYMid">
      <path
         transform="scale(0.7)"
         d="m -0.21114562,-4.1055728 6.42229122,3.21114561 a 1,1 90 0 1 0,1.78885438 L -0.21114562,4.1055728 A 1.236068,1.236068 31.717474 0 1 -2,3 v -6 a 1.236068,1.236068 148.28253 0 1 1.78885438,-1.1055728 z"
         style="fill:context-stroke;fill-rule:evenodd;stroke:none"
         id="path21612" />
    </marker>
    <marker
       style="overflow:visible"
       id="RoundedArrow"
       refX="0"
       refY="0"
       orient="auto"
       markerWidth="4.1350002"
       markerHeight="3.9973245"
       viewBox="0 0 6.1347524 5.9304951"
       preserveAspectRatio="xMidYMid">
      <path
         transform="scale(0.7)"
         d="m -0.21114562,-4.1055728 6.42229122,3.21114561 a 1,1 90 0 1 0,1.78885438 L -0.21114562,4.1055728 A 1.236068,1.236068 31.717474 0 1 -2,3 v -6 a 1.236068,1.236068 148.28253 0 1 1.78885438,-1.1055728 z"
         style="fill:context-stroke;fill-rule:evenodd;stroke:none"
         id="path1367" />
    </marker>
  </defs>
  <g
     id="layer1"
     transform="translate(-1937.2277,370.57665)">
    <g
       id="g5733">
      <path
         style="opacity:0.84;mix-blend-mode:normal;fill:none;fill-opacity:1;fill-rule:evenodd;stroke:#00c1ff;stroke-width:19.273;stroke-linejoin:round;stroke-miterlimit:0;stroke-dasharray:4.81825, 11.5638;stroke-dashoffset:0;stroke-opacity:1;marker-mid:url(#RoundedArrow);marker-end:url(#marker21614);paint-order:stroke fill markers"
         id="path20022-3"
         d="M 2707.0519,17.643909 A 366.22452,367.2016 0 0 1 2358.1842,401.1613 366.22452,367.2016 0 0 1 1975.3906,51.689222 366.22452,367.2016 0 0 1 2323.6069,-332.42285 366.22452,367.2016 0 0 1 2706.9931,16.395605" />
      <path
         id="path1571-1-7"
         style="display:inline;opacity:0.84;fill:#f2f2f2;fill-opacity:1;fill-rule:evenodd;stroke:#666666;stroke-width:15.9304;stroke-linejoin:round;stroke-miterlimit:0;stroke-dasharray:none;stroke-opacity:1;paint-order:stroke fill markers"
         d="m 2361.0531,-250.2817 c -4.9731,-0.10281 -9.8722,0.1106 -14.6339,0.66449 -117.3537,13.51066 -93.9189,113.50633 -50.0344,209.787945 a 85.444998,86.14362 0 0 0 -19.5665,23.95187 c -21.0313,-4.45754 -46.5632,-17.80505 -55.5306,-56.44967 -24.2776,-128.950805 -129.5428,-42.106545 -141.7755,34.22185 -19.5746,121.23243 89.3698,122.1083 196.4747,103.90048 a 85.444998,86.14362 0 0 0 5.4201,8.97907 c -7.7426,18.54213 -29.6803,57.566165 -83.4001,48.212845 -127.2381,-27.774005 -88.9981,103.82659 -24.0625,144.96248 107.7745,68.45117 150.2244,-44.80491 174.8849,-156.38297 a 85.444998,86.14362 0 0 0 6.6765,0.16689 85.444998,86.14362 0 0 0 12.9214,-1.61497 c 15.7261,15.327 37.8755,46.35615 15.2455,90.19058 -64.9303,113.76243 71.0498,117.04451 129.6624,67.18421 93.5709,-79.41109 10.4928,-151.90748 -82.9687,-208.556395 a 85.444998,86.14362 0 0 0 6.0318,-23.33362 c 20.5992,-4.33348 47.9248,-2.12802 71.4572,27.43969 77.1167,105.746755 134.8809,-18.40146 113.2316,-92.57587 -33.556,-115.458405 -128.8882,-73.082125 -216.2477,-12.05363 a 85.444998,86.14362 0 0 0 -26.2694,-14.22895 c -0.5301,-21.07605 6.5165,-47.420415 39.0255,-65.532855 109.219,-54.91908 18.0552,-127.39146 -56.5423,-128.93347 z" />
      <path
         style="display:inline;opacity:0.84;fill:#31d2ff;fill-opacity:1;fill-rule:evenodd;stroke:#666666;stroke-width:18.1654;stroke-linejoin:round;stroke-miterlimit:0;stroke-dasharray:none;stroke-opacity:1;paint-order:stroke fill markers"
         id="path9437-8-5"
         d="m 2434.6065,22.188351 a 85.034477,85.034477 0 0 1 -81.0043,88.812799 85.034477,85.034477 0 0 1 -88.8817,-80.928777 85.034477,85.034477 0 0 1 80.8531,-88.950508 85.034477,85.034477 0 0 1 89.0193,80.777411" />
    </g>
  </g>
</svg>
