<svg
   width="570.06042"
   height="717.06885"
   viewBox="0 0 570.06042 717.06885"
   version="1.1"
   id="svg5"
   xmlns="http://www.w3.org/2000/svg"
   xmlns:svg="http://www.w3.org/2000/svg">
  <defs
     id="defs2" />
  <g
     id="layer1"
     transform="translate(-913.0326,-1542.2777)">
    <g
       id="g5775">
      <path
         id="rect1722-2-3"
         style="fill:#b3b3b3;fill-opacity:0.890196;stroke:none;stroke-width:0.784523"
         d="m 1149.1826,2101.5868 c -0.3523,3.3928 -0.5723,6.8754 -0.5723,10.461 v 63.8242 c 0,3.3553 0.1887,6.6223 0.4981,9.8105 h -84.7188 c -16.8327,0 -30.3848,16.4271 -30.3848,36.8321 0,20.4049 13.5521,36.832 30.3848,36.832 h 267.3457 c 16.8327,0 30.3848,-16.4271 30.3848,-36.832 0,-20.405 -13.5521,-36.8321 -30.3848,-36.8321 h -84.7187 c 0.3094,-3.1882 0.498,-6.4552 0.498,-9.8105 v -63.8242 c 0,-2.4535 -0.2253,-4.7906 -0.3926,-7.1582 a 279.02499,279.76941 0 0 1 -27.3203,2.6328 279.02499,279.76941 0 0 1 -70.6191,-5.9356 z" />
      <path
         style="fill:none;fill-opacity:1;fill-rule:evenodd;stroke:#666666;stroke-width:12;stroke-linejoin:round;stroke-miterlimit:0;stroke-dasharray:none;stroke-opacity:1;paint-order:stroke fill markers"
         id="path20022-8-6"
         d="M 1476.7989,1815.321 A 279.02499,279.76941 0 0 1 1210.998,2107.5214 279.02499,279.76941 0 0 1 919.34908,1841.26 a 279.02499,279.76941 0 0 1 265.30462,-292.6534 279.02499,279.76941 0 0 1 292.1004,265.7633" />
      <path
         id="path25652-9-1"
         style="fill:#b3b3b3;fill-opacity:0.890196;fill-rule:evenodd;stroke:none;stroke-width:19.2509;stroke-linejoin:round;stroke-miterlimit:0;stroke-dasharray:4.81272, 11.5505;stroke-dashoffset:0;stroke-opacity:1;paint-order:stroke fill markers"
         d="m 1105.2004,1593.5231 c -17.2021,-1.2475 -38.1115,6.1556 -63.099,24.7319 -97.59966,72.5576 -13.9408,134.527 100.545,164.0294 a 70.495982,70.495982 0 0 0 -10.7841,40.6735 70.495982,70.495982 0 0 0 10.4433,33.3836 c -122.7337,-7.3012 -228.74286,27.1853 -154.03396,127.6786 75.00106,100.8863 138.74876,8.1789 166.95056,-112.1401 a 70.495982,70.495982 0 0 0 50.3253,18.1695 70.495982,70.495982 0 0 0 20.6456,-4.1131 c -6.7818,121.8341 27.9249,226.194 127.8423,151.9135 98.9409,-73.5548 11.6631,-136.2836 -105.2295,-165.2793 a 70.495982,70.495982 0 0 0 23.8971,-56.1482 l -0.012,-0.2397 a 70.495982,70.495982 0 0 0 -2.7783,-15.8152 c 115.591,3.4003 209.3601,-32.2297 137.9522,-128.2827 -70.802,-95.2383 -131.5141,-17.8697 -161.8284,92.2994 a 70.495982,70.495982 0 0 0 -47.1453,-15.1694 70.495982,70.495982 0 0 0 -28.5264,7.5906 c 2.6216,-85.7755 -16.1271,-159.7262 -65.1645,-163.2823 z" />
      <path
         style="display:inline;opacity:0.84;fill:#b3b3b3;fill-opacity:1;fill-rule:evenodd;stroke:#666666;stroke-width:15.0596;stroke-linejoin:round;stroke-miterlimit:0;stroke-dasharray:none;stroke-opacity:1;paint-order:stroke fill markers"
         id="path9437-8-7-0"
         d="m 1263.8895,1807.5387 a 70.495979,70.495979 0 0 1 -67.1549,73.6283 70.495979,70.495979 0 0 1 -73.6854,-67.0922 70.495979,70.495979 0 0 1 67.0295,-73.7425 70.495979,70.495979 0 0 1 73.7995,66.9668" />
    </g>
  </g>
</svg>
