<svg
   width="564.57318"
   height="564.56274"
   viewBox="0 0 564.57318 564.56274"
   version="1.1"
   id="svg5"
   xmlns="http://www.w3.org/2000/svg"
   xmlns:svg="http://www.w3.org/2000/svg">
  <defs
     id="defs2" />
  <g
     id="layer1"
     transform="translate(-1186.2324,271.05999)">
    <g
       id="g5779">
      <path
         id="path1571-1-7-0"
         style="display:inline;opacity:0.84;fill:#cccccc;fill-opacity:1;fill-rule:evenodd;stroke:#666666;stroke-width:15.9304;stroke-linejoin:round;stroke-miterlimit:0;stroke-dasharray:none;stroke-opacity:1;paint-order:stroke fill markers"
         d="m 1478.0318,-263.06979 c -4.9731,-0.10281 -9.8722,0.1106 -14.6339,0.66449 -117.3537,13.51066 -93.9189,113.50633 -50.0344,209.787946 a 85.444998,86.14362 0 0 0 -19.5665,23.95187 c -21.0313,-4.45754 -46.5632,-17.80505 -55.5306,-56.44967 -24.2776,-128.950806 -129.5428,-42.106546 -141.7755,34.22185 -19.5746,121.23243 89.3698,122.1083 196.4747,103.90048 a 85.444998,86.14362 0 0 0 5.4201,8.97907 c -7.7426,18.54213 -29.6803,57.566164 -83.4001,48.212844 -127.2381,-27.774004 -88.9981,103.82659 -24.0625,144.96248 107.7745,68.45117 150.2244,-44.80491 174.8849,-156.382974 a 85.444998,86.14362 0 0 0 6.6765,0.16689 85.444998,86.14362 0 0 0 12.9214,-1.61497 c 15.7261,15.327004 37.8755,46.356154 15.2455,90.190584 -64.9303,113.76243 71.0498,117.04451 129.6624,67.18421 93.5709,-79.41109 10.4928,-151.90748 -82.9687,-208.556394 a 85.444998,86.14362 0 0 0 6.0318,-23.33362 c 20.5992,-4.33348 47.9248,-2.12802 71.4572,27.43969 77.1167,105.746754 134.8809,-18.40146 113.2316,-92.57587 -33.556,-115.458406 -128.8882,-73.082126 -216.2477,-12.05363 a 85.444998,86.14362 0 0 0 -26.2694,-14.22895 c -0.5301,-21.07605 6.5165,-47.420416 39.0255,-65.532856 109.219,-54.91908 18.0552,-127.39146 -56.5423,-128.93347 z" />
      <path
         style="display:inline;opacity:0.84;fill:#cccccc;fill-opacity:1;fill-rule:evenodd;stroke:#666666;stroke-width:18.1654;stroke-linejoin:round;stroke-miterlimit:0;stroke-dasharray:none;stroke-opacity:1;paint-order:stroke fill markers"
         id="path9437-8-5-9"
         d="m 1551.5853,9.4002593 a 85.034477,85.034477 0 0 1 -81.0044,88.8127957 85.034477,85.034477 0 0 1 -88.8817,-80.928774 85.034477,85.034477 0 0 1 80.8532,-88.950508 85.034477,85.034477 0 0 1 89.0192,80.7774113" />
    </g>
  </g>
</svg>
