<svg
   width="570.06042"
   height="717.06885"
   viewBox="0 0 570.06042 717.06885"
   version="1.1"
   id="svg5"
   xmlns="http://www.w3.org/2000/svg"
   xmlns:svg="http://www.w3.org/2000/svg">
  <defs
     id="defs2" />
  <g
     id="layer1"
     transform="translate(-189.6359,-591.34266)">
    <g
       id="g5760">
      <path
         id="rect1722-2"
         style="fill:#b3b3b3;fill-opacity:0.890196;stroke:none;stroke-width:0.784523"
         d="m 425.78598,1150.6517 c -0.3523,3.3928 -0.5723,6.8754 -0.5723,10.461 v 63.8242 c 0,3.3553 0.1887,6.6223 0.4981,9.8105 h -84.7188 c -16.8327,0 -30.3848,16.4271 -30.3848,36.8321 0,20.4049 13.5521,36.832 30.3848,36.832 h 267.3457 c 16.8327,0 30.3848,-16.4271 30.3848,-36.832 0,-20.405 -13.5521,-36.8321 -30.3848,-36.8321 h -84.7187 c 0.3094,-3.1882 0.498,-6.4552 0.498,-9.8105 v -63.8242 c 0,-2.4535 -0.2253,-4.7906 -0.3926,-7.1582 a 279.02499,279.76941 0 0 1 -27.3203,2.6328 279.02499,279.76941 0 0 1 -70.6191,-5.9356 z" />
      <path
         style="fill:none;fill-opacity:1;fill-rule:evenodd;stroke:#666666;stroke-width:12;stroke-linejoin:round;stroke-miterlimit:0;stroke-dasharray:none;stroke-opacity:1;paint-order:stroke fill markers"
         id="path20022-8"
         d="M 753.40221,864.38596 A 279.02499,279.76941 0 0 1 487.60128,1156.5863 279.02499,279.76941 0 0 1 195.95238,890.32495 279.02499,279.76941 0 0 1 461.25703,597.67152 279.02499,279.76941 0 0 1 753.35738,863.43488" />
      <path
         id="path25652-9"
         style="fill:#0bc2fd;fill-opacity:0.890196;fill-rule:evenodd;stroke:none;stroke-width:19.2509;stroke-linejoin:round;stroke-miterlimit:0;stroke-dasharray:4.81272, 11.5505;stroke-dashoffset:0;stroke-opacity:1;paint-order:stroke fill markers"
         d="m 381.80378,642.58798 c -17.2021,-1.2475 -38.1115,6.1556 -63.099,24.7319 -97.5997,72.5576 -13.9408,134.527 100.545,164.0294 a 70.495982,70.495982 0 0 0 -10.7841,40.6735 70.495982,70.495982 0 0 0 10.4433,33.3836 c -122.7337,-7.3012 -228.7429,27.1853 -154.034,127.67862 75.0011,100.8863 138.7488,8.1789 166.9506,-112.14012 a 70.495982,70.495982 0 0 0 50.3253,18.1695 70.495982,70.495982 0 0 0 20.6456,-4.1131 c -6.7818,121.83412 27.9249,226.19402 127.8423,151.91352 98.94091,-73.5548 11.6631,-136.28362 -105.2295,-165.27932 a 70.495982,70.495982 0 0 0 23.8971,-56.1482 l -0.012,-0.2397 a 70.495982,70.495982 0 0 0 -2.7783,-15.8152 c 115.591,3.4003 209.36011,-32.2297 137.95221,-128.2827 -70.80201,-95.2383 -131.51411,-17.8697 -161.82841,92.2994 a 70.495982,70.495982 0 0 0 -47.1453,-15.1694 70.495982,70.495982 0 0 0 -28.5264,7.5906 c 2.6216,-85.7755 -16.1271,-159.7262 -65.1645,-163.2823 z" />
      <path
         style="display:inline;opacity:0.84;fill:#aef2ff;fill-opacity:1;fill-rule:evenodd;stroke:#666666;stroke-width:15.0596;stroke-linejoin:round;stroke-miterlimit:0;stroke-dasharray:none;stroke-opacity:1;paint-order:stroke fill markers"
         id="path9437-8-7"
         d="m 540.4928,856.60364 a 70.495979,70.495979 0 0 1 -67.15491,73.62832 70.495979,70.495979 0 0 1 -73.68542,-67.09224 70.495979,70.495979 0 0 1 67.02952,-73.74248 70.495979,70.495979 0 0 1 73.79948,66.96675" />
    </g>
  </g>
</svg>
