<svg
   width="879.10834"
   height="717.06885"
   viewBox="0 0 879.10834 717.06885"
   version="1.1"
   id="svg5"
   xmlns="http://www.w3.org/2000/svg"
   xmlns:svg="http://www.w3.org/2000/svg">
  <defs
     id="defs2" />
  <g
     id="layer1"
     transform="translate(-891.94337,-586.60377)">
    <g
       id="g5754">
      <path
         id="rect1722"
         style="fill:#b3b3b3;fill-opacity:0.890196;stroke:none;stroke-width:0.784523"
         d="m 1128.0935,1145.9128 c -0.3523,3.3928 -0.5723,6.8754 -0.5723,10.461 v 63.8242 c 0,3.3553 0.1887,6.6223 0.4981,9.8105 h -84.7188 c -16.8327,0 -30.3848,16.4271 -30.3848,36.8321 0,20.4049 13.5521,36.832 30.3848,36.832 h 267.3457 c 16.8327,0 30.3848,-16.4271 30.3848,-36.832 0,-20.405 -13.5521,-36.8321 -30.3848,-36.8321 h -84.7187 c 0.3094,-3.1882 0.498,-6.4552 0.498,-9.8105 v -63.8242 c 0,-2.4535 -0.2253,-4.7906 -0.3926,-7.1582 a 279.02499,279.76941 0 0 1 -27.3203,2.6328 279.02499,279.76941 0 0 1 -70.6191,-5.9356 z" />
      <path
         style="fill:none;fill-opacity:1;fill-rule:evenodd;stroke:#666666;stroke-width:12;stroke-linejoin:round;stroke-miterlimit:0;stroke-dasharray:none;stroke-opacity:1;paint-order:stroke fill markers"
         id="path20022"
         d="M 1455.7097,859.64707 A 279.02499,279.76941 0 0 1 1189.9087,1151.8474 279.02499,279.76941 0 0 1 898.25985,885.58606 279.02499,279.76941 0 0 1 1163.5645,592.93263 279.02499,279.76941 0 0 1 1455.6648,858.69599" />
      <path
         id="path25652"
         style="fill:#0bc2fd;fill-opacity:0.890196;fill-rule:evenodd;stroke:none;stroke-width:19.2509;stroke-linejoin:round;stroke-miterlimit:0;stroke-dasharray:4.81272, 11.5505;stroke-dashoffset:0;stroke-opacity:1;paint-order:stroke fill markers"
         d="m 1084.1113,637.84908 c -17.2021,-1.2474 -38.1115,6.1557 -63.099,24.7319 -97.59965,72.5576 -13.9408,134.527 100.545,164.0294 a 70.495982,70.495982 0 0 0 -10.7841,40.6736 70.495982,70.495982 0 0 0 10.4433,33.3835 c -122.73366,-7.3012 -228.74285,27.1853 -154.03396,127.67862 75.00106,100.8863 138.74876,8.1789 166.95056,-112.14002 a 70.495982,70.495982 0 0 0 50.3253,18.1694 70.495982,70.495982 0 0 0 20.6456,-4.1131 c -6.7818,121.83412 27.9249,226.19402 127.8423,151.91352 98.9409,-73.5548 11.6631,-136.28362 -105.2295,-165.27932 a 70.495982,70.495982 0 0 0 23.8971,-56.1482 l -0.012,-0.2397 a 70.495982,70.495982 0 0 0 -2.7783,-15.8152 c 115.591,3.4003 209.3601,-32.2297 137.9522,-128.2827 -70.802,-95.2383 -131.5141,-17.8697 -161.8284,92.2994 a 70.495982,70.495982 0 0 0 -47.1453,-15.1694 70.495982,70.495982 0 0 0 -28.5264,7.5907 c 2.6216,-85.7756 -16.1271,-159.7263 -65.1645,-163.2824 z" />
      <path
         style="display:inline;opacity:0.84;fill:#aef2ff;fill-opacity:1;fill-rule:evenodd;stroke:#666666;stroke-width:15.0596;stroke-linejoin:round;stroke-miterlimit:0;stroke-dasharray:none;stroke-opacity:1;paint-order:stroke fill markers"
         id="path9437-8"
         d="m 1242.8003,851.86475 a 70.495979,70.495979 0 0 1 -67.1549,73.62831 70.495979,70.495979 0 0 1 -73.6855,-67.09223 70.495979,70.495979 0 0 1 67.0296,-73.74248 70.495979,70.495979 0 0 1 73.7994,66.96675" />
      <path
         style="fill:none;fill-opacity:1;stroke:#008cff;stroke-width:14;stroke-dasharray:none;stroke-opacity:1"
         d="m 1762.6143,786.26978 c 3.5524,-19.85791 0.4391,-40.84906 -8.7241,-58.82103 -9.1632,-17.97197 -24.3234,-32.82089 -42.4816,-41.60938 -18.1581,-8.78849 -39.2093,-11.46575 -58.9893,-7.50218 -19.78,3.96357 -38.1743,14.54507 -51.5444,29.65129 -7.3213,8.27203 -13.1409,17.80485 -20.6936,25.8662 -13.1473,14.03272 -31.4719,23.10165 -50.6029,25.0436 -19.131,1.94194 -38.9042,-3.25978 -54.6031,-14.3644"
         id="path5438" />
      <path
         style="fill:none;fill-opacity:1;stroke:#008cff;stroke-width:14;stroke-dasharray:none;stroke-opacity:1"
         d="m 1762.6143,888.77038 c 3.5524,-19.85791 0.4391,-40.84906 -8.7241,-58.82103 -9.1632,-17.97197 -24.3234,-32.82089 -42.4816,-41.60938 -18.1581,-8.78849 -39.2093,-11.46575 -58.9893,-7.50218 -19.78,3.96357 -38.1743,14.54507 -51.5444,29.65129 -7.3213,8.27203 -13.1409,17.80485 -20.6936,25.8662 -13.1473,14.03272 -31.4719,23.10165 -50.6029,25.0436 -19.131,1.94194 -38.9042,-3.25978 -54.6031,-14.3644"
         id="path5438-0" />
      <path
         style="fill:none;fill-opacity:1;stroke:#008cff;stroke-width:14;stroke-dasharray:none;stroke-opacity:1"
         d="m 1762.6143,1003.091 c 3.5525,-19.85791 0.4391,-40.84907 -8.7241,-58.82104 -9.1632,-17.97197 -24.3234,-32.8209 -42.4816,-41.60939 -18.1581,-8.78849 -39.2093,-11.46575 -58.9893,-7.50218 -19.78,3.96357 -38.1743,14.54507 -51.5444,29.65129 -7.3213,8.27203 -13.1409,17.80485 -20.6936,25.8662 -13.1473,14.03272 -31.4719,23.10165 -50.6029,25.0436 -19.131,1.94194 -38.9042,-3.25978 -54.6031,-14.3644"
         id="path5438-7" />
    </g>
  </g>
</svg>
