<svg
   width="612.92529"
   height="595.59064"
   viewBox="0 0 612.92529 595.59064"
   version="1.1"
   id="svg5"
   xmlns="http://www.w3.org/2000/svg"
   xmlns:svg="http://www.w3.org/2000/svg">
  <defs
     id="defs2" />
  <g
     id="layer1"
     transform="translate(-2607.6867,-1029.3309)">
    <g
       id="g1083">
      <g
         id="g6955-1-8-5"
         transform="matrix(-0.15772853,-0.27319383,0.27319383,-0.15772853,2670.5867,1511.0518)"
         style="display:inline;fill:#cccccc;fill-opacity:0.866667">
        <path
           id="path6945-3-4-8"
           style="opacity:0.88;fill:#cccccc;fill-opacity:0.866667;fill-rule:evenodd;stroke:#666666;stroke-width:21.5203;stroke-dasharray:none"
           d="M 566.31097,381.23651 A 245.3141,265.79061 72.658413 0 0 385.72184,694.62398 245.3141,265.79061 72.658413 0 0 641.34286,862.06001 c -0.80848,4.97274 -0.549,10.13575 1.03247,15.2003 l 44.02161,140.97669 c 5.82639,18.6586 26.79075,28.5986 47.00684,22.2858 l 70.66204,-22.065 c 20.21608,-6.3127 31.80099,-26.41653 25.9746,-45.07521 L 786.01881,832.40595 c -1.58147,-5.06455 -4.30791,-9.45722 -7.80241,-13.08631 A 245.3141,265.79061 72.658413 0 0 893.13895,536.17704 245.3141,265.79061 72.658413 0 0 566.31097,381.23651 Z" />
        <path
           id="path6947-0-5-4"
           style="opacity:1;fill:#cccccc;fill-opacity:0.866667;fill-rule:evenodd;stroke:#ffffff;stroke-width:20.2916;stroke-linejoin:round;stroke-miterlimit:0;stroke-dasharray:none;paint-order:fill markers stroke"
           d="m 604.49309,711.64648 a 38.32164,38.32164 0 0 0 -36.4375,40.08594 38.32164,38.32164 0 0 0 40.05469,36.47266 38.32164,38.32164 0 0 0 20.46094,-7.08399 v 182.86329 h 57.12695 V 780.96094 h -56.89649 a 38.32164,38.32164 0 0 0 15.81446,-32.78125 l -0.006,-0.13086 a 38.32164,38.32164 0 0 0 -40.11719,-36.40235 z m 108.93555,0 a 38.32164,38.32164 0 0 0 -36.4375,40.08594 38.32164,38.32164 0 0 0 40.05468,36.47266 38.32164,38.32164 0 0 0 36.50586,-40.02539 l -0.006,-0.13086 A 38.32164,38.32164 0 0 0 713.4285,711.64648 Z" />
        <rect
           style="opacity:1;fill:#cccccc;fill-opacity:0.866667;fill-rule:evenodd;stroke:#666666;stroke-width:21.5203;stroke-miterlimit:0;stroke-dasharray:none"
           id="rect6949-5-5-5"
           width="66.10379"
           height="57.999626"
           x="623.55853"
           y="1040.0704"
           ry="28.999813"
           rx="33.051891" />
        <rect
           style="opacity:1;fill:#cccccc;fill-opacity:0.866667;fill-rule:evenodd;stroke:#666666;stroke-width:21.5203;stroke-miterlimit:0;stroke-dasharray:none"
           id="rect6951-0-0-4"
           width="182.40166"
           height="54.958321"
           x="565.40961"
           y="1003.9478"
           ry="27.47916"
           rx="36.489471" />
        <rect
           style="opacity:1;fill:#cccccc;fill-opacity:0.866667;fill-rule:evenodd;stroke:#666666;stroke-width:21.5203;stroke-miterlimit:0;stroke-dasharray:none"
           id="rect6953-8-8-5"
           width="192.73375"
           height="54.943569"
           x="560.24353"
           y="956.28278"
           ry="27.471785"
           rx="35.938046" />
      </g>
      <rect
         style="fill:#000000;fill-opacity:0.917647;fill-rule:evenodd;stroke-width:13.7319;stroke-linecap:square;stroke-miterlimit:0;paint-order:markers fill stroke"
         id="rect3520-1"
         width="29.151184"
         height="338.95734"
         x="3085.6218"
         y="1251.4452" />
      <rect
         style="fill:#000000;fill-opacity:0.917647;fill-rule:evenodd;stroke-width:10.2403;stroke-linecap:square;stroke-miterlimit:0;paint-order:markers fill stroke"
         id="rect3520-9-5"
         width="29.151184"
         height="188.49933"
         x="2444.552"
         y="-1966.3667"
         transform="rotate(58.359579)" />
      <rect
         style="fill:#000000;fill-opacity:0.917647;fill-rule:evenodd;stroke-width:11.9353;stroke-linecap:square;stroke-miterlimit:0;paint-order:markers fill stroke"
         id="rect3520-2-9"
         width="29.151184"
         height="256.06494"
         x="1811.4761"
         y="2551.072"
         transform="rotate(-34.858177)" />
      <path
         id="path746-3-2-1-6"
         style="fill:#666666;fill-rule:evenodd;stroke-width:6.67104;stroke-linecap:square;stroke-miterlimit:0;paint-order:markers fill stroke"
         d="m 3085.6395,1508.3366 a 134.97252,116.58488 0 0 0 -134.9725,116.5849 h 269.945 a 134.97252,116.58488 0 0 0 -134.9725,-116.5849 z" />
      <path
         id="path746-3-2-6-2"
         style="fill:#666666;fill-rule:evenodd;stroke-width:10.5371;stroke-linecap:square;stroke-miterlimit:0;paint-order:markers fill stroke"
         d="m 2887.0662,1107.3972 a 213.19315,184.14932 48.199521 0 0 -279.3795,-36.1864 l 284.203,317.8583 a 213.19315,184.14932 48.199521 0 0 -4.8235,-281.6719 z" />
    </g>
  </g>
</svg>
