<svg
   width="692.25977"
   height="595.59064"
   viewBox="0 0 692.25977 595.59064"
   version="1.1"
   id="svg5"
   xmlns="http://www.w3.org/2000/svg"
   xmlns:svg="http://www.w3.org/2000/svg">
  <defs
     id="defs2" />
  <g
     id="layer1"
     transform="translate(-1511.9352,-1029.3307)">
    <g
       id="g1102">
      <g
         id="g6997-0-1"
         transform="matrix(-0.35592901,-0.35812306,0.30741768,-0.30553427,1638.5493,1639.731)">
        <rect
           style="fill:#ffcc00;fill-opacity:1;fill-rule:evenodd;stroke:none;stroke-width:5.2;stroke-linejoin:round;stroke-miterlimit:0;stroke-dasharray:none;stroke-opacity:1;paint-order:stroke fill markers"
           id="rect6803-4-2-9"
           width="35.175571"
           height="132.8855"
           x="-442.78497"
           y="339.28116"
           transform="rotate(-61.505483)" />
        <rect
           style="fill:#ffcc00;fill-opacity:1;fill-rule:evenodd;stroke:none;stroke-width:5.2;stroke-linejoin:round;stroke-miterlimit:0;stroke-dasharray:none;stroke-opacity:1;paint-order:stroke fill markers"
           id="rect6856-33-9"
           width="35.175571"
           height="132.8855"
           x="-876.28314"
           y="-459.30533"
           transform="matrix(-0.47707466,-0.87886277,-0.87886277,0.47707466,0,0)" />
        <rect
           style="fill:#ffcc00;fill-opacity:1;fill-rule:evenodd;stroke:none;stroke-width:5.2;stroke-linejoin:round;stroke-miterlimit:0;stroke-dasharray:none;stroke-opacity:1;paint-order:stroke fill markers"
           id="rect6856-3-6-7"
           width="35.175571"
           height="132.8855"
           x="-797.59052"
           y="20.752262"
           transform="matrix(-0.87536435,-0.48346381,-0.48346381,0.87536435,0,0)" />
        <rect
           style="fill:#ffcc00;fill-opacity:1;fill-rule:evenodd;stroke:none;stroke-width:5.2;stroke-linejoin:round;stroke-miterlimit:0;stroke-dasharray:none;stroke-opacity:1;paint-order:stroke fill markers"
           id="rect6882-6-3"
           width="35.175571"
           height="132.8855"
           x="-2.1828814"
           y="460.05597"
           transform="rotate(-28.911874)" />
        <rect
           style="opacity:1;fill:#ffcc00;fill-opacity:1;fill-rule:evenodd;stroke:none;stroke-width:5.2;stroke-linejoin:round;stroke-miterlimit:0;stroke-dasharray:none;stroke-opacity:1;paint-order:stroke fill markers"
           id="rect6884-2-6"
           width="35.175571"
           height="132.8855"
           x="438.18326"
           y="337.43243"
           transform="rotate(0.204099)" />
      </g>
      <g
         id="g6955-1-8"
         transform="matrix(-0.15772853,-0.27319383,0.27319383,-0.15772853,1654.1696,1511.0516)"
         style="display:inline;fill:#fddc59;fill-opacity:0.917647">
        <path
           id="path6945-3-4"
           style="opacity:0.88;fill:#fddc59;fill-opacity:0.917647;fill-rule:evenodd;stroke:#666666;stroke-width:21.5203;stroke-dasharray:none"
           d="M 566.31097,381.23651 A 245.3141,265.79061 72.658413 0 0 385.72184,694.62398 245.3141,265.79061 72.658413 0 0 641.34286,862.06001 c -0.80848,4.97274 -0.549,10.13575 1.03247,15.2003 l 44.02161,140.97669 c 5.82639,18.6586 26.79075,28.5986 47.00684,22.2858 l 70.66204,-22.065 c 20.21608,-6.3127 31.80099,-26.41653 25.9746,-45.07521 L 786.01881,832.40595 c -1.58147,-5.06455 -4.30791,-9.45722 -7.80241,-13.08631 A 245.3141,265.79061 72.658413 0 0 893.13895,536.17704 245.3141,265.79061 72.658413 0 0 566.31097,381.23651 Z" />
        <path
           id="path6947-0-5"
           style="opacity:1;fill:#fddc59;fill-opacity:0.917647;fill-rule:evenodd;stroke:#ffffff;stroke-width:20.2916;stroke-linejoin:round;stroke-miterlimit:0;stroke-dasharray:none;paint-order:fill markers stroke"
           d="m 604.49309,711.64648 a 38.32164,38.32164 0 0 0 -36.4375,40.08594 38.32164,38.32164 0 0 0 40.05469,36.47266 38.32164,38.32164 0 0 0 20.46094,-7.08399 v 182.86329 h 57.12695 V 780.96094 h -56.89649 a 38.32164,38.32164 0 0 0 15.81446,-32.78125 l -0.006,-0.13086 a 38.32164,38.32164 0 0 0 -40.11719,-36.40235 z m 108.93555,0 a 38.32164,38.32164 0 0 0 -36.4375,40.08594 38.32164,38.32164 0 0 0 40.05468,36.47266 38.32164,38.32164 0 0 0 36.50586,-40.02539 l -0.006,-0.13086 A 38.32164,38.32164 0 0 0 713.4285,711.64648 Z" />
        <rect
           style="opacity:1;fill:#fddc59;fill-opacity:0.917647;fill-rule:evenodd;stroke:#666666;stroke-width:21.5203;stroke-miterlimit:0;stroke-dasharray:none"
           id="rect6949-5-5"
           width="66.10379"
           height="57.999626"
           x="623.55853"
           y="1040.0704"
           ry="28.999813"
           rx="33.051891" />
        <rect
           style="opacity:1;fill:#fddc59;fill-opacity:0.917647;fill-rule:evenodd;stroke:#666666;stroke-width:21.5203;stroke-miterlimit:0;stroke-dasharray:none"
           id="rect6951-0-0"
           width="182.40166"
           height="54.958321"
           x="565.40961"
           y="1003.9478"
           ry="27.47916"
           rx="36.489471" />
        <rect
           style="opacity:1;fill:#fddc59;fill-opacity:0.917647;fill-rule:evenodd;stroke:#666666;stroke-width:21.5203;stroke-miterlimit:0;stroke-dasharray:none"
           id="rect6953-8-8"
           width="192.73375"
           height="54.943569"
           x="560.24353"
           y="956.28278"
           ry="27.471785"
           rx="35.938046" />
      </g>
      <rect
         style="fill:#000000;fill-opacity:0.917647;fill-rule:evenodd;stroke-width:13.7319;stroke-linecap:square;stroke-miterlimit:0;paint-order:markers fill stroke"
         id="rect3520"
         width="29.151184"
         height="338.95734"
         x="2069.2046"
         y="1251.4451" />
      <rect
         style="fill:#000000;fill-opacity:0.917647;fill-rule:evenodd;stroke-width:10.2403;stroke-linecap:square;stroke-miterlimit:0;paint-order:markers fill stroke"
         id="rect3520-9"
         width="29.151184"
         height="188.49933"
         x="1911.3529"
         y="-1101.033"
         transform="rotate(58.359579)" />
      <rect
         style="fill:#000000;fill-opacity:0.917647;fill-rule:evenodd;stroke-width:11.9353;stroke-linecap:square;stroke-miterlimit:0;paint-order:markers fill stroke"
         id="rect3520-2"
         width="29.151184"
         height="256.06494"
         x="977.43542"
         y="1970.1415"
         transform="rotate(-34.858177)" />
      <path
         id="path746-3-2-1"
         style="fill:#666666;fill-rule:evenodd;stroke-width:6.67104;stroke-linecap:square;stroke-miterlimit:0;paint-order:markers fill stroke"
         d="m 2069.2224,1508.3364 a 134.97252,116.58488 0 0 0 -134.9725,116.5849 h 269.945 a 134.97252,116.58488 0 0 0 -134.9725,-116.5849 z" />
      <path
         id="path746-3-2-6"
         style="fill:#666666;fill-rule:evenodd;stroke-width:10.5371;stroke-linecap:square;stroke-miterlimit:0;paint-order:markers fill stroke"
         d="m 1870.6491,1107.397 a 213.19315,184.14932 48.199521 0 0 -279.3795,-36.1864 l 284.203,317.8583 a 213.19315,184.14932 48.199521 0 0 -4.8235,-281.6719 z" />
    </g>
  </g>
</svg>
