<svg
   width="677.38287"
   height="739.70563"
   viewBox="0 0 677.38287 739.70563"
   version="1.1"
   id="svg5"
   xmlns="http://www.w3.org/2000/svg"
   xmlns:svg="http://www.w3.org/2000/svg">
  <defs
     id="defs2" />
  <g
     id="layer1"
     transform="translate(588.55822,-974.68066)">
    <g
       id="g1128">
      <g
         id="g6997-0-8"
         transform="matrix(0.88379586,0,0,-0.75866229,-653.71588,1971.5661)">
        <rect
           style="fill:#ffcc00;fill-opacity:1;fill-rule:evenodd;stroke:none;stroke-width:5.2;stroke-linejoin:round;stroke-miterlimit:0;stroke-dasharray:none;stroke-opacity:1;paint-order:stroke fill markers"
           id="rect6803-4-2-2"
           width="35.175571"
           height="132.8855"
           x="-442.78497"
           y="339.28116"
           transform="rotate(-61.505483)" />
        <rect
           style="fill:#ffcc00;fill-opacity:1;fill-rule:evenodd;stroke:none;stroke-width:5.2;stroke-linejoin:round;stroke-miterlimit:0;stroke-dasharray:none;stroke-opacity:1;paint-order:stroke fill markers"
           id="rect6856-33-8"
           width="35.175571"
           height="132.8855"
           x="-876.28314"
           y="-459.30533"
           transform="matrix(-0.47707466,-0.87886277,-0.87886277,0.47707466,0,0)" />
        <rect
           style="fill:#ffcc00;fill-opacity:1;fill-rule:evenodd;stroke:none;stroke-width:5.2;stroke-linejoin:round;stroke-miterlimit:0;stroke-dasharray:none;stroke-opacity:1;paint-order:stroke fill markers"
           id="rect6856-3-6-6"
           width="35.175571"
           height="132.8855"
           x="-797.59052"
           y="20.752262"
           transform="matrix(-0.87536435,-0.48346381,-0.48346381,0.87536435,0,0)" />
        <rect
           style="fill:#ffcc00;fill-opacity:1;fill-rule:evenodd;stroke:none;stroke-width:5.2;stroke-linejoin:round;stroke-miterlimit:0;stroke-dasharray:none;stroke-opacity:1;paint-order:stroke fill markers"
           id="rect6882-6-4"
           width="35.175571"
           height="132.8855"
           x="-2.1828814"
           y="460.05597"
           transform="rotate(-28.911874)" />
        <rect
           style="opacity:1;fill:#ffcc00;fill-opacity:1;fill-rule:evenodd;stroke:none;stroke-width:5.2;stroke-linejoin:round;stroke-miterlimit:0;stroke-dasharray:none;stroke-opacity:1;paint-order:stroke fill markers"
           id="rect6884-2-3"
           width="35.175571"
           height="132.8855"
           x="438.18326"
           y="337.43243"
           transform="rotate(0.204099)" />
      </g>
      <g
         id="g6955-1-6"
         transform="matrix(0.55217313,0,0,-0.55217313,-614.74398,1737.3413)"
         style="display:inline">
        <path
           id="path6945-3-6"
           style="opacity:0.88;fill:#ffdd55;fill-opacity:1;fill-rule:evenodd;stroke:#666666;stroke-width:21.5203;stroke-dasharray:none"
           d="m 656.61133,377.14044 a 265.79061,245.3141 0 0 0 -265.7911,245.31455 265.79061,245.3141 0 0 0 194.0944,236.01756 c -2.25394,4.50573 -3.54518,9.51139 -3.54518,14.81712 v 147.68993 c 0,19.5472 17.04865,35.2841 38.22742,35.2841 h 74.02696 c 21.17877,0 38.22938,-15.7369 38.22938,-35.2841 V 873.28967 c 0,-5.30573 -1.2932,-10.31139 -3.54714,-14.81712 A 265.79061,245.3141 0 0 0 922.40047,622.45499 265.79061,245.3141 0 0 0 656.61133,377.14044 Z" />
        <path
           id="path6947-0-55"
           style="opacity:1;fill:none;fill-opacity:1;fill-rule:evenodd;stroke:#ffffff;stroke-width:20.2916;stroke-linejoin:round;stroke-miterlimit:0;stroke-dasharray:none;paint-order:fill markers stroke"
           d="m 604.49309,711.64648 a 38.32164,38.32164 0 0 0 -36.4375,40.08594 38.32164,38.32164 0 0 0 40.05469,36.47266 38.32164,38.32164 0 0 0 20.46094,-7.08399 v 182.86329 h 57.12695 V 780.96094 h -56.89649 a 38.32164,38.32164 0 0 0 15.81446,-32.78125 l -0.006,-0.13086 a 38.32164,38.32164 0 0 0 -40.11719,-36.40235 z m 108.93555,0 a 38.32164,38.32164 0 0 0 -36.4375,40.08594 38.32164,38.32164 0 0 0 40.05468,36.47266 38.32164,38.32164 0 0 0 36.50586,-40.02539 l -0.006,-0.13086 A 38.32164,38.32164 0 0 0 713.4285,711.64648 Z" />
        <rect
           style="opacity:1;fill:#cccccc;fill-opacity:1;fill-rule:evenodd;stroke:#666666;stroke-width:21.5203;stroke-miterlimit:0;stroke-dasharray:none"
           id="rect6949-5-9"
           width="66.10379"
           height="57.999626"
           x="623.55853"
           y="1040.0704"
           ry="28.999813"
           rx="33.051891" />
        <rect
           style="opacity:1;fill:#cccccc;fill-opacity:1;fill-rule:evenodd;stroke:#666666;stroke-width:21.5203;stroke-miterlimit:0;stroke-dasharray:none"
           id="rect6951-0-9"
           width="182.40166"
           height="54.958321"
           x="565.40961"
           y="1003.9478"
           ry="27.47916"
           rx="36.489471" />
        <rect
           style="opacity:1;fill:#cccccc;fill-opacity:1;fill-rule:evenodd;stroke:#666666;stroke-width:21.5203;stroke-miterlimit:0;stroke-dasharray:none"
           id="rect6953-8-9"
           width="192.73375"
           height="54.943569"
           x="560.24353"
           y="956.28278"
           ry="27.471785"
           rx="35.938046" />
      </g>
      <rect
         style="fill:#666666;fill-opacity:1;fill-rule:evenodd;stroke-width:15.8;stroke-linecap:square;stroke-miterlimit:0;paint-order:markers fill stroke"
         id="rect855-8"
         width="112.60024"
         height="156.33588"
         x="-308.48148"
         y="974.68066" />
      <path
         style="opacity:1;fill:#666666;fill-opacity:1;fill-rule:evenodd;stroke-width:18.8976;stroke-linecap:square;stroke-miterlimit:0;paint-order:markers fill stroke"
         id="path4821"
         d="m -1497.9005,646.69501 471.5015,816.66459 -943.003,0 z"
         transform="matrix(0.71832523,0,0,0.4215492,826.11295,778.79668)" />
    </g>
  </g>
</svg>
