<svg
   width="680.9433"
   height="714.12885"
   viewBox="0 0 680.9433 714.12885"
   version="1.1"
   id="svg5"
   xmlns="http://www.w3.org/2000/svg"
   xmlns:svg="http://www.w3.org/2000/svg">
  <defs
     id="defs2" />
  <g
     id="layer1"
     transform="translate(-517.36159,-928.39877)">
    <g
       id="g1633">
      <path
         d="m 1178.6207,1223.007 h -50.6324 c -12.8077,0 -24.3361,-8.1637 -29.1315,-20.629 l -14.5433,-37.8199 c -4.7132,-12.2612 -1.99,-26.2887 6.92,-35.6377 l 35.5279,-37.2782 c 6.172,-6.476 6.172,-17.081 0,-23.557 l -61.7343,-64.7758 c -6.172,-6.47598 -16.279,-6.47598 -22.4509,0 l -35.8047,37.5687 c -9.05971,9.506 -22.71278,12.2848 -34.49558,7.0255 L 936.5086,1031.953 c -11.59577,-5.1729 -19.12179,-17.1123 -19.12179,-30.3312 v -52.73435 c -0.015,-9.16061 -7.15945,-16.65708 -15.88994,-16.65708 h -87.30489 c -8.73049,0 -15.87497,7.49647 -15.87497,16.65708 v 53.12675 c 0,13.4387 -7.78039,25.5351 -19.66044,30.5668 l -36.04412,15.2598 c -11.68554,4.9453 -25.05433,2.088 -33.96437,-7.261 l -35.52793,-37.2782 c -6.17194,-6.47598 -16.27895,-6.47598 -22.45089,0 l -61.73436,64.7758 c -6.17194,6.476 -6.17194,17.0809 0,23.5569 l 35.80473,37.5687 c 9.05966,9.506 11.70798,23.8317 6.69562,36.195 l -15.20168,37.5373 c -4.93007,12.1671 -16.30888,20.0639 -28.90711,20.0639 h -50.25829 c -8.73049,0.01 -15.87498,7.5043 -15.87498,16.6649 v 91.6061 c 0,9.1606 7.14449,16.657 15.87498,16.657 h 50.63234 c 12.80771,0 24.33615,8.1637 29.13156,20.6291 l 14.54333,37.8198 c 4.71312,12.2613 1.98998,26.2887 -6.92005,35.6377 l -35.52793,37.2783 c -6.17194,6.476 -6.17194,17.0809 0,23.5569 l 61.73435,64.7758 c 6.17194,6.476 16.27896,6.476 22.4509,0 l 35.80473,-37.5687 c 9.05966,-9.506 22.71274,-12.2848 34.49553,-7.0255 l 35.76732,15.9506 c 11.59577,5.173 19.12179,17.1124 19.12179,30.3313 v 52.7265 c 0,9.1606 7.14449,16.657 15.87498,16.657 h 87.30489 c 8.73049,0 15.87497,-7.4964 15.87497,-16.657 v -53.1268 c 0,-13.4387 7.78039,-25.5351 19.66044,-30.5668 l 36.04412,-15.2598 c 11.68554,-4.9453 25.05434,-2.088 33.96436,7.261 l 35.5279,37.2861 c 6.172,6.476 16.279,6.476 22.4509,0 l 61.7344,-64.7758 c 6.1719,-6.476 6.1719,-17.081 0,-23.557 l -35.8047,-37.5687 c -9.0597,-9.506 -11.708,-23.8317 -6.6957,-36.195 l 15.2017,-37.5373 c 4.9301,-12.167 16.3089,-20.0638 28.9071,-20.0638 h 50.2508 c 8.7305,0 15.875,-7.4965 15.875,-16.6571 v -91.6061 c 0.022,-9.1684 -7.122,-16.6649 -15.8525,-16.6649 z m -320.77627,234.612 c -90.61155,0 -164.06885,-77.0762 -164.06885,-172.1519 0,-95.0756 73.4573,-172.1519 164.06885,-172.1519 90.61155,0 164.06887,77.0763 164.06887,172.1519 0,95.0757 -73.45732,172.1519 -164.06887,172.1519 z"
         style="fill:#f9f9f9;fill-rule:nonzero;stroke:#666666;stroke-width:7.66321;stroke-linecap:butt;stroke-linejoin:miter;stroke-miterlimit:10;stroke-dasharray:none"
         stroke-linecap="round"
         id="path13931-1" />
      <path
         d="m 857.84443,1156.9125 c 67.55468,0 122.5186,57.6718 122.5186,128.5546 0,70.8829 -54.96392,128.5547 -122.5186,128.5547 -67.55468,0 -122.51861,-57.6718 -122.51861,-128.5547 0,-70.8828 54.96393,-128.5546 122.51861,-128.5546 m 0,-57.3657 c -97.86078,0 -177.19077,83.2383 -177.19077,185.9203 0,102.682 79.32999,185.9203 177.19077,185.9203 97.86077,0 177.19077,-83.2383 177.19077,-185.9203 0,-102.682 -79.33,-185.9203 -177.19077,-185.9203 z"
         style="fill:#808080;fill-rule:nonzero;stroke:#808080;stroke-width:7.66321;stroke-linecap:butt;stroke-linejoin:miter;stroke-miterlimit:10;stroke-dasharray:none"
         stroke-linecap="round"
         id="path13933-8" />
    </g>
  </g>
</svg>
