<svg
   width="673.28009"
   height="706.4657"
   viewBox="0 0 673.28009 706.4657"
   version="1.1"
   id="svg5"
   xmlns="http://www.w3.org/2000/svg"
   xmlns:svg="http://www.w3.org/2000/svg">
  <defs
     id="defs2" />
  <g
     id="layer1"
     transform="translate(-1624.8643,-932.23425)">
    <g
       style="fill:#4d4d4d;fill-rule:nonzero;stroke:none;stroke-width:0;stroke-linecap:butt;stroke-linejoin:miter;stroke-miterlimit:10;stroke-dasharray:none"
       transform="matrix(7.4811386,0,0,7.8497061,1624.8643,932.23425)"
       id="g13935">
      <path
         d="M 87.878,37.043 H 81.11 c -1.712,0 -3.253,-1.04 -3.894,-2.628 l -1.944,-4.818 c -0.63,-1.562 -0.266,-3.349 0.925,-4.54 l 4.749,-4.749 c 0.825,-0.825 0.825,-2.176 0,-3.001 L 72.694,9.055 c -0.825,-0.825 -2.176,-0.825 -3.001,0 l -4.786,4.786 c -1.211,1.211 -3.036,1.565 -4.611,0.895 L 55.515,12.704 C 53.965,12.045 52.959,10.524 52.959,8.84 V 2.122 C 52.957,0.955 52.002,0 50.835,0 H 39.165 C 37.998,0 37.043,0.955 37.043,2.122 V 8.89 c 0,1.712 -1.04,3.253 -2.628,3.894 l -4.818,1.944 c -1.562,0.63 -3.349,0.266 -4.54,-0.925 L 20.308,9.054 c -0.825,-0.825 -2.176,-0.825 -3.001,0 l -8.252,8.252 c -0.825,0.825 -0.825,2.176 0,3.001 l 4.786,4.786 c 1.211,1.211 1.565,3.036 0.895,4.611 l -2.032,4.782 c -0.659,1.55 -2.18,2.556 -3.864,2.556 H 2.122 C 0.955,37.043 0,37.998 0,39.165 v 11.67 c 0,1.167 0.955,2.122 2.122,2.122 H 8.89 c 1.712,0 3.253,1.04 3.894,2.628 l 1.944,4.818 c 0.63,1.562 0.266,3.349 -0.925,4.54 l -4.749,4.749 c -0.825,0.825 -0.825,2.176 0,3.001 l 8.252,8.252 c 0.825,0.825 2.176,0.825 3.001,0 l 4.786,-4.786 c 1.211,-1.211 3.036,-1.565 4.611,-0.895 l 4.781,2.032 c 1.55,0.659 2.556,2.18 2.556,3.864 v 6.717 c 0,1.167 0.955,2.122 2.122,2.122 h 11.67 c 1.167,0 2.122,-0.955 2.122,-2.122 v -6.768 c 0,-1.712 1.04,-3.253 2.628,-3.894 l 4.818,-1.944 c 1.562,-0.63 3.349,-0.266 4.54,0.925 l 4.749,4.75 c 0.825,0.825 2.176,0.825 3.001,0 l 8.252,-8.252 c 0.825,-0.825 0.825,-2.176 0,-3.001 l -4.786,-4.786 c -1.211,-1.211 -1.565,-3.036 -0.895,-4.611 l 2.032,-4.782 c 0.659,-1.55 2.18,-2.556 3.864,-2.556 h 6.717 c 1.167,0 2.122,-0.955 2.122,-2.122 V 39.166 C 90,37.998 89.045,37.043 87.878,37.043 Z M 45,66.931 C 32.888,66.931 23.069,57.112 23.069,45 23.069,32.888 32.888,23.069 45,23.069 c 12.112,0 21.931,9.819 21.931,21.931 0,12.112 -9.819,21.931 -21.931,21.931 z"
         style="opacity:1;fill:#4d4d4d;fill-rule:nonzero;stroke:none;stroke-width:1;stroke-linecap:butt;stroke-linejoin:miter;stroke-miterlimit:10;stroke-dasharray:none"
         stroke-linecap="round"
         id="path13931" />
      <path
         d="M 45,28.623 C 54.03,28.623 61.377,35.97 61.377,45 61.377,54.03 54.03,61.377 45,61.377 35.97,61.377 28.623,54.03 28.623,45 28.623,35.97 35.97,28.623 45,28.623 m 0,-7.308 C 31.919,21.315 21.315,31.919 21.315,45 21.315,58.081 31.919,68.685 45,68.685 58.081,68.685 68.685,58.081 68.685,45 68.685,31.919 58.081,21.315 45,21.315 Z"
         style="opacity:1;fill:#4d4d4d;fill-rule:nonzero;stroke:none;stroke-width:1;stroke-linecap:butt;stroke-linejoin:miter;stroke-miterlimit:10;stroke-dasharray:none"
         stroke-linecap="round"
         id="path13933" />
    </g>
  </g>
</svg>
