<svg
   width="762.07306"
   height="753.47937"
   viewBox="0 0 762.07306 753.47937"
   version="1.1"
   id="svg5"
   xmlns="http://www.w3.org/2000/svg"
   xmlns:svg="http://www.w3.org/2000/svg">
  <defs
     id="defs2" />
  <g
     id="layer1"
     transform="translate(-1580.4678,126.19486)">
    <g
       id="g426"
       transform="translate(-10.862118,-3.9305512)">
      <path
         d="m 2197.497,623.2288 3.5587,-23.44816 c 0.9002,-5.93134 5.3169,-10.67731 11.1606,-11.99274 l 17.7294,-3.98828 c 5.7478,-1.29215 11.7531,0.98775 15.2569,5.79305 l 13.9708,19.16071 c 2.4271,3.32861 7.1119,4.09884 10.4065,1.71092 l 32.9543,-23.88496 c 3.2946,-2.38791 4.005,-7.06854 1.578,-10.39715 l -14.0797,-19.30999 c -3.5626,-4.886 -3.8305,-11.41065 -0.679,-16.48536 l 9.5602,-15.40559 c 3.1002,-4.99437 8.9036,-7.61257 14.7431,-6.65249 l 23.2958,3.83006 c 4.0479,0.6584 7.8616,-2.1058 8.4753,-6.14894 l 6.1363,-40.43146 c 0.6136,-4.04314 -2.1959,-7.89626 -6.2426,-8.56159 l -23.4692,-3.85856 c -5.9367,-0.97605 -10.7335,-5.45774 -12.1213,-11.32492 l -4.2078,-17.80057 c -1.3633,-5.77083 0.8386,-11.75448 5.5949,-15.20176 l 18.9651,-13.74572 c 3.2946,-2.38792 4.005,-7.06854 1.5779,-10.39715 l -24.2761,-33.2942 c -2.4271,-3.32861 -7.1119,-4.09884 -10.4065,-1.71092 l -19.1129,13.85281 c -4.8361,3.50517 -11.3507,3.69116 -16.46,0.47197 l -15.514,-9.7663 c -5.0283,-3.16683 -7.717,-9.00997 -6.8316,-14.84429 l 3.5325,-23.27494 c 0.6102,-4.04372 -2.1993,-7.89684 -6.2461,-8.56216 l -40.4677,-6.65329 c -4.0468,-0.66532 -7.8606,2.09887 -8.4742,6.14202 l -3.5588,23.44816 c -0.9002,5.93133 -5.3168,10.6773 -11.1605,11.99274 l -17.7295,3.98828 c -5.7477,1.29215 -11.7531,-0.98775 -15.2568,-5.79306 l -13.9709,-19.1607 c -2.427,-3.32861 -7.1118,-4.09884 -10.4065,-1.71093 l -32.9543,23.88496 c -3.2946,2.38792 -4.005,7.06855 -1.5779,10.39716 l 14.0797,19.30998 c 3.5626,4.886 3.8305,11.41065 0.679,16.48536 l -9.5603,15.4056 c -3.1002,4.99436 -8.9035,7.61256 -14.743,6.65248 l -23.2924,-3.82948 c -4.0468,-0.66533 -7.8606,2.09887 -8.4742,6.14201 l -6.1363,40.43146 c -0.6136,4.04314 2.1958,7.89626 6.2426,8.56159 l 23.4692,3.85856 c 5.9367,0.97604 10.7335,5.45774 12.1213,11.32491 l 4.2077,17.80058 c 1.3633,5.77082 -0.8385,11.75447 -5.5948,15.20176 l -18.9685,13.74515 c -3.2947,2.38791 -4.0051,7.06854 -1.578,10.39715 l 24.2761,33.29419 c 2.4271,3.32862 7.1119,4.09885 10.4065,1.71093 l 19.1129,-13.85281 c 4.8361,-3.50518 11.3507,-3.69117 16.46,-0.47197 l 15.514,9.7663 c 5.0283,3.16683 7.7171,9.00997 6.8316,14.84429 l -3.532,23.27147 c -0.6136,4.04315 2.1959,7.89627 6.2427,8.5616 l 40.4677,6.65328 c 4.0487,0.67629 7.8624,-2.0879 8.4761,-6.13105 z m -81.0957,-165.59324 c 6.3687,-41.96279 45.5808,-70.38335 87.5812,-63.47807 42.0005,6.90527 70.8865,46.52181 64.5178,88.4846 -6.3687,41.96279 -45.5808,70.38334 -87.5813,63.47807 -42.0004,-6.90527 -70.8865,-46.52181 -64.5177,-88.4846 z"
         style="fill:#666666;fill-rule:nonzero;stroke:#666666;stroke-width:3.5091;stroke-linecap:butt;stroke-linejoin:miter;stroke-miterlimit:10;stroke-dasharray:none"
         stroke-linecap="round"
         id="path13931-4-6" />
      <path
         d="m 2243.1586,478.47566 c -4.7482,31.28501 -34.0884,52.5505 -65.4015,47.40233 -31.313,-5.14817 -52.9268,-34.79098 -48.1787,-66.07598 4.7482,-31.28501 34.0883,-52.5505 65.4014,-47.40233 31.3131,5.14817 52.9269,34.79098 48.1788,66.07598 m 25.3417,4.16643 c 6.8782,-45.31995 -24.3172,-88.10372 -69.6778,-95.56144 -45.3606,-7.45771 -87.7076,23.23498 -94.5858,68.55493 -6.8783,45.31996 24.3171,88.10372 69.6778,95.56144 45.3606,7.45772 87.7076,-23.23498 94.5858,-68.55493 z"
         style="fill:#b3b3b3;fill-rule:nonzero;stroke:#999999;stroke-width:3.5091;stroke-linecap:butt;stroke-linejoin:miter;stroke-miterlimit:10;stroke-dasharray:none"
         stroke-linecap="round"
         id="path13933-9-1" />
      <path
         d="m 2170.5558,178.79053 -42.8959,-8.72451 c -10.8507,-2.20691 -19.2066,-10.78404 -21.1148,-21.67378 l -5.7842,-33.03847 c -1.8737,-10.71079 2.8579,-21.566087 12.0224,-27.578362 l 36.5427,-23.973379 c 6.3483,-4.164674 8.1813,-12.726194 4.0717,-19.017854 l -41.1055,-62.931857 c -4.1095,-6.291661 -12.6723,-8.033212 -19.0205,-3.868537 l -36.8274,24.1601579 c -9.3184,6.1132369 -21.3657,6.0040202 -30.4391,-0.2721905 L 1998.46,-17.16849 c -8.9299,-6.174275 -13.2423,-17.109931 -10.9575,-27.78173 l 9.1148,-42.573125 c 1.5707,-7.398058 -3.1864,-14.681135 -10.583,-16.185495 l -73.965,-15.04359 c -7.3965,-1.50436 -14.745,3.31657 -16.3284,10.71205 l -9.1826,42.88998 c -2.3228,10.84924 -11.0052,19.274177 -21.9397,21.289241 l -33.1743,6.108663 c -10.7548,1.978872 -21.587,-2.631449 -27.5197,-11.714319 l -23.6561,-36.217086 c -4.1096,-6.29166 -12.6723,-8.033211 -19.0205,-3.868537 l -63.4976,41.656838 c -6.3483,4.164674 -8.1813,12.726194 -4.0717,19.017855 l 23.8404,36.4992568 c 6.0323,9.2353952 5.7999,21.2570702 -0.5835,30.3744312 l -19.367,27.684943 c -6.2798,8.973112 -17.2849,13.387613 -27.9582,11.216798 l -42.579,-8.660057 c -7.3978,-1.498022 -14.7464,3.322904 -16.3298,10.718384 l -15.8335,73.954799 c -1.5833,7.39548 3.1738,14.67856 10.5703,16.18292 l 42.8959,8.72451 c 10.8508,2.20691 19.2066,10.78404 21.1148,21.67378 l 5.7842,33.03847 c 1.8737,10.71078 -2.8579,21.56609 -12.0224,27.57836 l -36.5427,23.97338 c -6.3482,4.16467 -8.1812,12.72619 -4.0717,19.01785 l 41.1055,62.93186 c 4.1096,6.29166 12.6723,8.03321 19.0205,3.86854 l 36.8274,-24.16016 c 9.3185,-6.11324 21.3657,-6.00402 30.4391,0.27219 l 27.5452,19.04024 c 8.9299,6.17427 13.2423,17.10993 10.9575,27.78173 l -9.1134,42.56679 c -1.5834,7.39548 3.1738,14.67855 10.5703,16.18291 l 73.965,15.04359 c 7.3965,1.50436 14.7451,-3.31656 16.3284,-10.71204 l 9.1826,-42.88999 c 2.3228,-10.84924 11.0052,-19.27417 21.9397,-21.28924 l 33.1743,-6.10866 c 10.7548,-1.97887 21.587,2.63145 27.5197,11.71432 l 23.6548,36.22342 c 4.1095,6.29166 12.6722,8.03321 19.0204,3.86854 l 63.4977,-41.65684 c 6.3482,-4.16467 8.1812,-12.72619 4.0717,-19.01785 l -23.8404,-36.49926 c -6.0324,-9.2354 -5.7999,-21.25707 0.5835,-30.37443 l 19.367,-27.68495 c 6.2798,-8.97311 17.2848,-13.38761 27.9581,-11.21679 l 42.5727,8.65876 c 7.3965,1.50436 14.7451,-3.31656 16.3284,-10.71204 l 15.8335,-73.95481 c 1.6038,-7.39795 -3.1534,-14.68102 -10.5499,-16.18538 z m -312.314,134.13213 c -76.7665,-15.61337 -125.6777,-90.49557 -109.2444,-167.2514 16.4332,-76.755834 91.9886,-126.323029 168.7551,-110.709661 76.7664,15.613369 125.6776,90.495571 109.2444,167.251401 -16.4332,76.75583 -91.9887,126.32303 -168.7551,110.70966 z"
         style="fill:#666666;fill-rule:nonzero;stroke:#666666;stroke-width:6.47413;stroke-linecap:butt;stroke-linejoin:miter;stroke-miterlimit:10;stroke-dasharray:none"
         stroke-linecap="round"
         id="path13931-4-1-4" />
      <path
         d="m 1910.217,70.158255 c 57.2325,11.640416 93.83,67.670515 81.5784,124.895185 -12.2517,57.22466 -68.7855,94.31298 -126.0181,82.67256 -57.2326,-11.64041 -93.8301,-67.67051 -81.5784,-124.89518 12.2516,-57.224664 68.7855,-94.31298 126.0181,-82.672565 m 9.9152,-46.312056 c -82.908,-16.8624897 -164.5039,36.667456 -182.2518,119.564011 -17.7479,82.89655 35.0736,163.76536 117.9816,180.62785 82.908,16.86249 164.5039,-36.66746 182.2518,-119.56401 17.7479,-82.89655 -35.0735,-163.765362 -117.9816,-180.627851 z"
         style="fill:#b3b3b3;fill-rule:nonzero;stroke:#b3b3b3;stroke-width:6.47413;stroke-linecap:butt;stroke-linejoin:miter;stroke-miterlimit:10;stroke-dasharray:none"
         stroke-linecap="round"
         id="path13933-9-6-7" />
    </g>
  </g>
</svg>
