<svg
   width="512.03497"
   height="541.64148"
   viewBox="0 0 512.03497 541.64148"
   version="1.1"
   id="svg5"
   xmlns="http://www.w3.org/2000/svg"
   xmlns:svg="http://www.w3.org/2000/svg">
  <defs
     id="defs2" />
  <g
     id="layer1"
     transform="translate(42.009123,636.28547)">
    <g
       id="g1856"
       transform="translate(91.955615,169.65326)">
      <path
         id="path7415-7"
         style="display:inline;fill:#b3b3b3;fill-opacity:1;fill-rule:evenodd;stroke:#666666;stroke-width:18.8976;stroke-linejoin:round;stroke-miterlimit:0;stroke-dasharray:none;stroke-opacity:1;paint-order:stroke fill markers"
         d="m 292.48692,-796.48993 c -0.37864,0.10587 -0.76927,0.24052 -1.14843,0.34765 -0.50969,-0.0395 -1.01948,-0.061 -1.5293,-0.0645 -2.36956,0.50381 -4.73093,1.39739 -7.07617,2.67774 -97.94041,29.8005 -211.526094,99.84505 -308.658204,176.08203 v -6.29688 h -71.84571 v 174.80472 h 71.84571 v -11.6465 c 84.16049,63.33718 214.272144,160.6138 310.650394,184.6484 2.15044,0.86735 4.31066,1.41149 6.47461,1.6309 0.7319,0.1621 1.49585,0.4063 2.2246,0.5605 0.0409,-0.1483 0.0783,-0.297 0.11915,-0.4453 1.12125,0.14196 2.24327,0.19668 3.36523,0.1641 41.46029,-6.68615 73.52169,-128.87383 71.63279,-272.99611 l -0.012,-0.88868 c -2.0372,-140.11666 -35.5339,-249.65301 -75.89257,-248.17377 -0.0524,-0.13529 -0.0979,-0.26898 -0.1504,-0.4043 z" />
      <path
         id="path34909-5"
         style="fill:#b3b3b3;fill-opacity:1;fill-rule:evenodd;stroke:#666666;stroke-width:9.44882;stroke-linecap:butt;stroke-linejoin:round;stroke-miterlimit:0;stroke-dasharray:none;stroke-opacity:1;paint-order:markers fill stroke"
         d="m 294.95444,-795.56724 a 75.195595,261.38138 0 0 0 -5.13281,0.24805 75.195595,261.38138 0 0 0 -69.75,203.94531 c 0.92031,-0.24881 1.83261,-0.51704 2.77539,-0.70899 1.48691,-0.30272 3.00044,-0.53432 4.53711,-0.68945 1.53667,-0.15513 3.09492,-0.23437 4.67383,-0.23437 h 20.52539 c 1.57891,0 3.13716,0.0792 4.67383,0.23437 1.53667,0.15513 3.0502,0.38673 4.53711,0.68945 1.4869,0.30273 2.94733,0.67634 4.37695,1.11914 1.42962,0.4428 2.82856,0.95395 4.19336,1.5293 1.3648,0.57535 2.69582,1.21565 3.98828,1.91602 1.29246,0.70037 2.54718,1.46143 3.75977,2.27929 1.21259,0.81787 2.38261,1.69326 3.50781,2.6211 1.1252,0.92783 2.20605,1.90722 3.23633,2.9375 1.03028,1.03028 2.01162,2.11113 2.93945,3.23633 0.92784,1.12519 1.80128,2.29522 2.61914,3.50781 0.81787,1.21259 1.57893,2.4673 2.2793,3.75976 0.70037,1.29246 1.34067,2.62348 1.91601,3.98828 0.57535,1.36481 1.0865,2.76375 1.5293,4.19336 0.4428,1.42962 0.81642,2.89005 1.11914,4.37696 0.30273,1.4869 0.53433,3.00044 0.68945,4.53711 0.15513,1.53667 0.23438,3.09687 0.23438,4.67578 v 26.33398 c 0,1.57891 -0.0793,3.13716 -0.23438,4.67383 -0.15512,1.53667 -0.38672,3.0502 -0.68945,4.53711 -0.30272,1.48691 -0.67634,2.94734 -1.11914,4.37695 -0.4428,1.42962 -0.95395,2.82856 -1.5293,4.19336 -0.57534,1.3648 -1.21564,2.69582 -1.91601,3.98828 -0.70037,1.29246 -1.46143,2.54718 -2.2793,3.75977 -0.81786,1.21259 -1.6913,2.38261 -2.61914,3.50777 -0.92783,1.1252 -1.90917,2.2061 -2.93945,3.2364 -1.03028,1.0302 -2.11113,2.0096 -3.23633,2.9375 -1.1252,0.9278 -2.29522,1.8032 -3.50781,2.6211 -1.21259,0.8178 -2.46731,1.5789 -3.75977,2.2793 -1.29246,0.7003 -2.62348,1.3406 -3.98828,1.916 -1.3648,0.5753 -2.76374,1.0865 -4.19336,1.5293 -1.42962,0.4428 -2.89005,0.8164 -4.37695,1.1191 -1.48691,0.3027 -3.00044,0.5343 -4.53711,0.6895 -1.53667,0.1551 -3.09492,0.2343 -4.67383,0.2343 h -20.52539 c -1.57891,0 -3.13716,-0.079 -4.67383,-0.2343 -1.53667,-0.1552 -3.0502,-0.3868 -4.53711,-0.6895 -0.93218,-0.1898 -1.83392,-0.4558 -2.74414,-0.7012 a 75.195595,261.38138 0 0 0 76.81836,203.9571 75.195595,261.38138 0 0 0 71.63285,-272.99417 l -0.012,-0.88867 a 75.195595,261.38138 0 0 0 -73.58765,-248.54492 z" />
      <path
         id="rect7469-3"
         style="display:inline;fill:#b3b3b3;fill-rule:evenodd;stroke:#666666;stroke-width:17.784;stroke-linejoin:round;stroke-miterlimit:0;paint-order:stroke fill markers"
         d="m -98.920194,-623.60225 h 74.14431 c -27.38941,65.43417 -12.53381,118.35218 -1.1493,174.66308 h -71.84571 c -49.735116,-89.84856 -19.983106,-130.86828 -1.1493,-174.66308 z" />
      <path
         id="path34434-5"
         style="display:inline;fill:#b3b3b3;fill-opacity:1;fill-rule:evenodd;stroke:#666666;stroke-width:9.44882;stroke-linecap:square;stroke-miterlimit:0;stroke-dasharray:none;stroke-opacity:1;paint-order:markers fill stroke"
         d="m 219.71836,-477.10665 c 0.91022,0.2454 1.81196,0.5114 2.74414,0.7012 1.48691,0.3027 3.00044,0.5343 4.53711,0.6895 1.53667,0.1551 3.09492,0.2343 4.67383,0.2343 h 20.52539 c 1.57891,0 3.13716,-0.079 4.67383,-0.2343 1.53667,-0.1552 3.0502,-0.3868 4.53711,-0.6895 1.4869,-0.3027 2.94733,-0.6763 4.37695,-1.1191 1.42962,-0.4428 2.82856,-0.954 4.19336,-1.5293 1.3648,-0.5754 2.69582,-1.2157 3.98828,-1.916 1.29246,-0.7004 2.54718,-1.4615 3.75977,-2.2793 1.21259,-0.8179 2.38261,-1.6933 3.50781,-2.6211 1.1252,-0.9279 2.20605,-1.9073 3.23633,-2.9375 1.03028,-1.0303 2.01162,-2.1112 2.93945,-3.2364 0.92784,-1.12516 1.80128,-2.29518 2.61914,-3.50777 0.81787,-1.21259 1.57893,-2.46731 2.2793,-3.75977 0.70037,-1.29246 1.34067,-2.62348 1.91601,-3.98828 0.57535,-1.3648 1.0865,-2.76374 1.5293,-4.19336 0.4428,-1.42961 0.81642,-2.89004 1.11914,-4.37695 0.30273,-1.48691 0.53433,-3.00044 0.68945,-4.53711 0.15513,-1.53667 0.23438,-3.09492 0.23438,-4.67383 v -26.33398 c 0,-1.57891 -0.0793,-3.13911 -0.23438,-4.67578 -0.15512,-1.53667 -0.38672,-3.05021 -0.68945,-4.53711 -0.30272,-1.48691 -0.67634,-2.94734 -1.11914,-4.37696 -0.4428,-1.42961 -0.95395,-2.82855 -1.5293,-4.19336 -0.57534,-1.3648 -1.21564,-2.69582 -1.91601,-3.98828 -0.70037,-1.29246 -1.46143,-2.54717 -2.2793,-3.75976 -0.81786,-1.21259 -1.6913,-2.38262 -2.61914,-3.50781 -0.92783,-1.1252 -1.90917,-2.20605 -2.93945,-3.23633 -1.03028,-1.03028 -2.11113,-2.00967 -3.23633,-2.9375 -1.1252,-0.92784 -2.29522,-1.80323 -3.50781,-2.6211 -1.21259,-0.81786 -2.46731,-1.57892 -3.75977,-2.27929 -1.29246,-0.70037 -2.62348,-1.34067 -3.98828,-1.91602 -1.3648,-0.57535 -2.76374,-1.0865 -4.19336,-1.5293 -1.42962,-0.4428 -2.89005,-0.81641 -4.37695,-1.11914 -1.48691,-0.30272 -3.00044,-0.53432 -4.53711,-0.68945 -1.53667,-0.15513 -3.09492,-0.23437 -4.67383,-0.23437 h -20.52539 c -1.57891,0 -3.13716,0.0792 -4.67383,0.23437 -1.53667,0.15513 -3.0502,0.38673 -4.53711,0.68945 -0.94278,0.19195 -1.85508,0.46018 -2.77539,0.70899 a 75.195595,261.38138 0 0 0 -1.74805,69.47265 75.195595,261.38138 0 0 0 1.7793,44.80465 z" />
    </g>
  </g>
</svg>
