<svg
   width="435.08786"
   height="584.92609"
   viewBox="0 0 435.08786 584.92609"
   version="1.1"
   id="svg5"
   xmlns="http://www.w3.org/2000/svg"
   xmlns:svg="http://www.w3.org/2000/svg">
  <defs
     id="defs2" />
  <g
     id="layer1"
     transform="translate(-1.4165477,-839.90191)">
    <g
       id="g1972"
       transform="translate(-1016.1165,-200.4993)">
      <rect
         style="fill:#c87137;fill-opacity:1;fill-rule:evenodd;stroke:#666666;stroke-width:16.0091;stroke-linecap:butt;stroke-linejoin:round;stroke-miterlimit:0;stroke-dasharray:none;stroke-opacity:1;paint-order:markers fill stroke"
         id="rect35164-0"
         width="419.07877"
         height="568.91699"
         x="1025.5376"
         y="1048.4058"
         rx="49.427601"
         ry="55.430027" />
      <path
         id="path35220-7"
         style="fill:#999999;fill-opacity:1;fill-rule:evenodd;stroke:#666666;stroke-width:16.0091;stroke-linecap:butt;stroke-linejoin:round;stroke-miterlimit:0;stroke-dasharray:none;stroke-opacity:1;paint-order:markers fill stroke"
         d="m 1229.1138,1318.3814 a 124.08479,124.08479 0 0 0 -117.9835,129.7989 124.08479,124.08479 0 0 0 129.6997,118.0927 124.08479,124.08479 0 0 0 118.2036,-129.597 l -0.02,-0.422 a 124.08479,124.08479 0 0 0 -129.8998,-117.8726 z m 2.4191,50.2778 a 73.748494,73.748494 0 0 1 77.2046,70.0569 l 0.012,0.2498 a 73.748494,73.748494 0 0 1 -70.2536,77.0258 73.748494,73.748494 0 0 1 -77.0855,-70.1874 73.748494,73.748494 0 0 1 70.123,-77.1451 z" />
      <path
         id="path35218-0"
         style="fill:#999999;fill-opacity:1;fill-rule:evenodd;stroke:#666666;stroke-width:16.0091;stroke-linecap:butt;stroke-linejoin:round;stroke-miterlimit:0;stroke-dasharray:none;stroke-opacity:1;paint-order:markers fill stroke"
         d="m 1230.8578,1108.9391 a 87.795846,87.795846 0 0 0 -83.4788,91.8394 87.795846,87.795846 0 0 0 91.7683,83.5565 87.795846,87.795846 0 0 0 83.6343,-91.6971 l -0.014,-0.2978 a 87.795846,87.795846 0 0 0 -91.9106,-83.401 z m 2.5878,53.7855 a 33.947716,33.947716 0 0 1 35.5388,32.2479 l 0.01,0.1159 a 33.947716,33.947716 0 0 1 -32.3389,35.4561 33.947716,33.947716 0 0 1 -35.4825,-32.3091 33.947716,33.947716 0 0 1 32.2776,-35.5108 z" />
      <circle
         style="fill:#000000;fill-opacity:1;fill-rule:evenodd;stroke:#666666;stroke-width:20.6378;stroke-linecap:square;stroke-linejoin:miter;stroke-miterlimit:0;stroke-dasharray:none;stroke-opacity:1;paint-order:markers fill stroke"
         id="path37030-5"
         cx="1235.077"
         cy="1442.3221"
         r="65.548393" />
      <circle
         style="fill:#000000;fill-opacity:1;fill-rule:evenodd;stroke:#666666;stroke-width:11.0958;stroke-linecap:square;stroke-linejoin:miter;stroke-miterlimit:0;stroke-dasharray:none;stroke-opacity:1;paint-order:markers fill stroke"
         id="path37030-2-7"
         cx="1235.0768"
         cy="1196.6334"
         r="35.241741" />
    </g>
  </g>
</svg>
