<svg
   width="680.62646"
   height="660.36548"
   viewBox="0 0 680.62646 660.36548"
   version="1.1"
   id="svg5"
   xmlns="http://www.w3.org/2000/svg"
   xmlns:svg="http://www.w3.org/2000/svg">
  <defs
     id="defs2" />
  <g
     id="layer1"
     transform="translate(-1010.3941,-768.92959)">
    <g
       id="g3676">
      <text
         xml:space="preserve"
         style="font-size:333.333px;font-family:Arial;-inkscape-font-specification:Arial;fill:#666666;fill-rule:evenodd;stroke:none;stroke-width:18.8976;stroke-linecap:square;stroke-miterlimit:0;paint-order:markers fill stroke"
         x="1485.4543"
         y="957.56873"
         id="text34321-4-3-0"><tspan
           id="tspan34319-2-7-6"
           x="1485.4543"
           y="957.56873"
           style="font-size:333.333px;fill:#666666">♫</tspan></text>
      <rect
         style="fill:#b3b3b3;fill-opacity:1;fill-rule:evenodd;stroke:#666666;stroke-width:16.0091;stroke-linecap:butt;stroke-linejoin:round;stroke-miterlimit:0;stroke-dasharray:none;stroke-opacity:1;paint-order:markers fill stroke"
         id="rect35164-0-2"
         width="419.07877"
         height="568.91699"
         x="1018.3986"
         y="852.37354"
         rx="49.427601"
         ry="55.430027" />
      <path
         id="path35220-7-6"
         style="fill:#999999;fill-opacity:1;fill-rule:evenodd;stroke:#666666;stroke-width:16.0091;stroke-linecap:butt;stroke-linejoin:round;stroke-miterlimit:0;stroke-dasharray:none;stroke-opacity:1;paint-order:markers fill stroke"
         d="m 1221.9749,1122.3492 a 124.08479,124.08479 0 0 0 -117.9835,129.7989 124.08479,124.08479 0 0 0 129.6997,118.0927 124.08479,124.08479 0 0 0 118.2036,-129.597 l -0.02,-0.422 a 124.08479,124.08479 0 0 0 -129.8998,-117.8726 z m 2.4191,50.2778 a 73.748494,73.748494 0 0 1 77.2046,70.0569 l 0.012,0.2498 a 73.748494,73.748494 0 0 1 -70.2536,77.0258 73.748494,73.748494 0 0 1 -77.0855,-70.1874 73.748494,73.748494 0 0 1 70.123,-77.1451 z" />
      <path
         id="path35218-0-1"
         style="fill:#999999;fill-opacity:1;fill-rule:evenodd;stroke:#666666;stroke-width:16.0091;stroke-linecap:butt;stroke-linejoin:round;stroke-miterlimit:0;stroke-dasharray:none;stroke-opacity:1;paint-order:markers fill stroke"
         d="m 1223.7189,912.90687 a 87.795846,87.795846 0 0 0 -83.4788,91.83943 87.795846,87.795846 0 0 0 91.7683,83.5565 87.795846,87.795846 0 0 0 83.6343,-91.69713 l -0.014,-0.2978 a 87.795846,87.795846 0 0 0 -91.9106,-83.401 z m 2.5878,53.7855 a 33.947716,33.947716 0 0 1 35.5388,32.2479 l 0.01,0.1159 a 33.947716,33.947716 0 0 1 -32.3389,35.45613 33.947716,33.947716 0 0 1 -35.4825,-32.3091 33.947716,33.947716 0 0 1 32.2776,-35.51083 z" />
      <circle
         style="fill:#000000;fill-opacity:1;fill-rule:evenodd;stroke:#666666;stroke-width:20.6378;stroke-linecap:square;stroke-linejoin:miter;stroke-miterlimit:0;stroke-dasharray:none;stroke-opacity:1;paint-order:markers fill stroke"
         id="path37030-5-8"
         cx="1227.9381"
         cy="1246.2899"
         r="65.548393" />
      <circle
         style="fill:#000000;fill-opacity:1;fill-rule:evenodd;stroke:#666666;stroke-width:11.0958;stroke-linecap:square;stroke-linejoin:miter;stroke-miterlimit:0;stroke-dasharray:none;stroke-opacity:1;paint-order:markers fill stroke"
         id="path37030-2-7-7"
         cx="1227.9379"
         cy="1000.6012"
         r="35.241741" />
    </g>
  </g>
</svg>
