<svg
   width="743.87384"
   height="544.08966"
   viewBox="0 0 743.87384 544.08966"
   version="1.1"
   id="svg5"
   xmlns="http://www.w3.org/2000/svg"
   xmlns:svg="http://www.w3.org/2000/svg">
  <defs
     id="defs2" />
  <g
     id="layer1"
     transform="translate(-2209.7056,-132.13181)">
    <g
       id="g1889"
       transform="translate(91.955615,169.65326)">
      <path
         id="path7415-9"
         style="fill:#8dd35f;fill-opacity:1;fill-rule:evenodd;stroke:#666666;stroke-width:18.8976;stroke-linejoin:round;stroke-miterlimit:0;stroke-dasharray:none;stroke-opacity:1;paint-order:stroke fill markers"
         d="M 2583.316,-28.073324 2264.9039,153.42078 v -6.2988 h -137.7051 v 174.8047 h 137.7051 v -11.6465 l 319.3496,186.8399 c 4.5326,-165.74516 1.4577,-332.83523 -0.9375,-525.193404 z" />
      <rect
         style="fill:#8dd35f;fill-opacity:1;fill-rule:evenodd;stroke:#666666;stroke-width:18.8976;stroke-linejoin:round;stroke-miterlimit:0;stroke-dasharray:none;stroke-opacity:1;paint-order:stroke fill markers"
         id="rect7469-1"
         width="137.70537"
         height="174.80557"
         x="2127.199"
         y="147.12056" />
      <path
         id="path35635"
         style="fill:#d7f4ee;fill-opacity:1;fill-rule:evenodd;stroke:#d7f4ee;stroke-width:2.5;stroke-linecap:butt;stroke-linejoin:bevel;stroke-miterlimit:0;stroke-dasharray:none;stroke-opacity:1;paint-order:markers fill stroke"
         d="m 2691.7452,56.047336 a 177.13837,178.77822 0 0 1 168.4276,187.011154 177.13837,178.77822 0 0 1 -176.941,169.94089 v -32.72597 a 144.64071,145.97969 0 0 0 144.4801,-138.76288 144.64071,145.97969 0 0 0 -137.5284,-152.703414 144.64071,145.97969 0 0 0 -6.9517,0.16369 v -32.72242 a 177.13837,178.77822 0 0 1 8.5134,-0.20105 z" />
      <path
         id="path35635-5"
         style="fill:#d7f4ee;fill-opacity:1;fill-rule:evenodd;stroke:#d7f4ee;stroke-width:17.997;stroke-linecap:square;stroke-linejoin:round;stroke-miterlimit:0;stroke-dasharray:none;stroke-opacity:1;paint-order:markers fill stroke"
         d="m 2691.9035,149.13308 a 84.750279,85.534847 0 0 1 80.5827,89.47382 84.750279,85.534847 0 0 1 -84.6559,81.30671 v -15.65746 a 69.202056,69.842682 0 0 0 69.1252,-66.38986 69.202056,69.842682 0 0 0 -65.7992,-73.05958 69.202056,69.842682 0 0 0 -3.326,0.0783 v -15.65572 a 84.750279,85.534847 0 0 1 4.0732,-0.0962 z" />
    </g>
  </g>
</svg>
