<svg
   width="600.24304"
   height="591.71912"
   viewBox="0 0 600.24304 591.71912"
   version="1.1"
   id="svg5"
   xmlns="http://www.w3.org/2000/svg"
   xmlns:svg="http://www.w3.org/2000/svg">
  <defs
     id="defs2" />
  <g
     id="layer1"
     transform="translate(-819.66089,-380.50131)">
    <g
       id="g2046">
      <rect
         style="fill:#000000;fill-opacity:0.945098;fill-rule:nonzero;stroke:none;stroke-width:1.52928;stroke-miterlimit:4;stroke-dasharray:1.52928, 3.05855;stroke-dashoffset:0;stroke-opacity:1"
         id="rect6848-6-9"
         width="594.8241"
         height="28.382296"
         x="824.83679"
         y="-972.2204"
         ry="6.679224"
         transform="scale(1,-1)" />
      <rect
         style="fill:#000000;fill-opacity:0.945098;fill-rule:nonzero;stroke:none;stroke-width:1.52928;stroke-miterlimit:4;stroke-dasharray:1.52928, 3.05855;stroke-dashoffset:0;stroke-opacity:1"
         id="rect6848-6-3-1"
         width="590.94116"
         height="29.088852"
         x="380.50131"
         y="819.66089"
         ry="6.8454976"
         transform="matrix(0,1,1,0,0,0)" />
      <rect
         style="fill:#000000;fill-opacity:0.573705;fill-rule:nonzero;stroke:none;stroke-width:1.55054;stroke-miterlimit:4;stroke-dasharray:1.55054, 3.10106;stroke-dashoffset:0;stroke-opacity:1"
         id="rect6848-2-2-8"
         width="228.11427"
         height="116.00947"
         x="715.55225"
         y="-1010.5121"
         ry="0"
         transform="rotate(90)" />
      <rect
         style="fill:#b3b3b3;fill-opacity:0.588235;fill-rule:nonzero;stroke:none;stroke-width:1.55054;stroke-miterlimit:4;stroke-dasharray:1.55054, 3.10106;stroke-dashoffset:0;stroke-opacity:1"
         id="rect6848-2-2-7-7"
         width="367.89047"
         height="116.00947"
         x="575.77588"
         y="-1179.6536"
         ry="0"
         transform="rotate(90)" />
      <rect
         style="fill:#999999;fill-opacity:0.784314;fill-rule:nonzero;stroke:none;stroke-width:1.55054;stroke-miterlimit:4;stroke-dasharray:1.55054, 3.10106;stroke-dashoffset:0;stroke-opacity:1"
         id="rect6848-2-2-7-2-1"
         width="463.05728"
         height="116.00947"
         x="480.60922"
         y="-1350.0911"
         ry="0"
         transform="rotate(90)" />
      <g
         id="g7086"
         transform="matrix(0.33102376,-0.38292859,0.38292859,0.33102376,1066.1064,1174.0757)"
         style="opacity:0.5;stroke:#000000;stroke-width:1.81577;stroke-opacity:1">
        <g
           id="g7080"
           style="stroke:#000000;stroke-width:1.81577;stroke-opacity:1">
          <path
             style="fill:#000000;stroke:#000000;stroke-width:34.8628;stroke-linecap:round;stroke-linejoin:round;stroke-opacity:1;paint-order:markers fill stroke"
             id="path7063"
             d="M 1069.5456,-315.08914 A 227.21567,227.21567 0 0 1 842.8436,-87.874055 227.21567,227.21567 0 0 1 615.11661,-314.06186 227.21567,227.21567 0 0 1 840.78904,-542.29958 227.21567,227.21567 0 0 1 1069.5363,-317.14369" />
          <rect
             style="fill:#000000;stroke:#000000;stroke-width:34.8628;stroke-linecap:round;stroke-linejoin:round;stroke-opacity:1;paint-order:markers fill stroke"
             id="rect7065"
             width="45.192066"
             height="261.10971"
             x="819.73395"
             y="-105.44816"
             rx="3.4702253"
             ry="8.0892086" />
        </g>
        <path
           style="fill:#aaccff;stroke:#000000;stroke-width:34.8628;stroke-linecap:round;stroke-linejoin:round;stroke-opacity:1;paint-order:markers fill stroke"
           id="path6955"
           d="M 1035.6516,-315.08914 A 193.32161,193.32161 0 0 1 842.76698,-121.76803 193.32161,193.32161 0 0 1 649.01032,-314.2151 193.32161,193.32161 0 0 1 841.0189,-508.40631 a 193.32161,193.32161 0 0 1 194.6248,191.5691" />
      </g>
    </g>
  </g>
</svg>
