<svg
   width="613.3327"
   height="688.09869"
   viewBox="0 0 613.3327 688.09869"
   version="1.1"
   id="svg5"
   xmlns:xlink="http://www.w3.org/1999/xlink"
   xmlns="http://www.w3.org/2000/svg"
   xmlns:svg="http://www.w3.org/2000/svg">
  <defs
     id="defs2">
    <linearGradient
       id="linearGradient2234">
      <stop
         style="stop-color:#ff3434;stop-opacity:1;"
         offset="0"
         id="stop2230" />
      <stop
         style="stop-color:#41fbff;stop-opacity:1;"
         offset="1"
         id="stop2232" />
    </linearGradient>
    <rect
       x="728.13745"
       y="521.771"
       width="237.2366"
       height="198.229"
       id="rect2016" />
    <linearGradient
       xlink:href="#linearGradient2234"
       id="linearGradient2236"
       x1="421.99997"
       y1="637.11975"
       x2="578.78857"
       y2="901.49469"
       gradientUnits="userSpaceOnUse" />
  </defs>
  <g
     id="layer1"
     transform="translate(-497.78759,-412.04492)">
    <g
       id="g1926">
      <g
         id="g3267"
         style="display:inline"
         transform="translate(174.47463,182.38633)">
        <rect
           style="display:inline;opacity:1;fill:#666666;fill-opacity:1;fill-rule:evenodd;stroke:none;stroke-width:18.8976;stroke-linejoin:round;stroke-miterlimit:0;stroke-dasharray:none;paint-order:stroke fill markers"
           id="rect3060"
           width="99.664131"
           height="35.175571"
           x="372.16791"
           y="371.29773" />
        <rect
           style="display:inline;fill:#666666;fill-opacity:1;fill-rule:evenodd;stroke:none;stroke-width:23.069;stroke-linejoin:round;stroke-miterlimit:0;stroke-dasharray:none;paint-order:stroke fill markers"
           id="rect3060-5"
           width="148.51909"
           height="35.175571"
           x="323.31296"
           y="439.69464" />
        <rect
           style="display:inline;fill:#666666;fill-opacity:1;fill-rule:evenodd;stroke:none;stroke-width:18.8976;stroke-linejoin:round;stroke-miterlimit:0;stroke-dasharray:none;paint-order:stroke fill markers"
           id="rect3060-50"
           width="99.664131"
           height="35.175571"
           x="372.16791"
           y="508.09155" />
      </g>
      <g
         id="g751"
         transform="translate(224.58826,141.94165)">
        <path
           id="rect285"
           style="fill:#cccccc;fill-rule:evenodd;stroke:#666666;stroke-width:18.8976;stroke-linejoin:round;stroke-miterlimit:0;stroke-dasharray:none;paint-order:stroke fill markers"
           d="m 575.06283,279.55207 c -37.93563,0 -68.47718,31.21314 -68.47718,69.98703 V 702.981 a 143.62274,130.90024 0 0 0 -74.98619,121.04921 143.62274,130.90024 0 0 0 150.12005,124.58037 143.62274,130.90024 0 0 0 136.8174,-136.71683 l -0.0247,-0.44505 A 143.62274,130.90024 0 0 0 643.53672,703.00545 V 349.5391 c 0,-38.77389 -30.53894,-69.98703 -68.47444,-69.98703 z" />
        <path
           id="path2150"
           style="opacity:1;fill:url(#linearGradient2236);fill-opacity:1;fill-rule:evenodd;stroke:none;stroke-width:18.8976;stroke-linejoin:round;stroke-miterlimit:0;stroke-dasharray:none;paint-order:stroke fill markers"
           d="m 575.06394,497.72711 c -17.62801,0 -31.81836,23.6717 -31.81836,53.07617 v 196.92383 a 80.323906,80.323906 0 0 0 -48.41602,77.32227 80.323906,80.323906 0 0 0 83.95899,76.44531 80.323906,80.323906 0 0 0 76.51562,-83.89258 l -0.0117,-0.27344 a 80.323906,80.323906 0 0 0 -48.40821,-69.68359 v -196.8418 c 0,-29.40447 -14.19231,-53.07617 -31.82031,-53.07617 z" />
      </g>
      <text
         xml:space="preserve"
         id="text2014"
         style="font-style:normal;font-variant:normal;font-weight:normal;font-stretch:normal;font-size:133.333px;font-family:Arial;-inkscape-font-specification:Arial;white-space:pre;shape-inside:url(#rect2016);display:inline;opacity:1;fill:#666666;fill-opacity:1;fill-rule:evenodd;stroke:none;stroke-width:18.8976;stroke-linejoin:round;stroke-miterlimit:0;stroke-dasharray:none;paint-order:stroke fill markers"
         transform="matrix(1.4553964,0,0,1.4553964,-158.95701,-108.63029)"><tspan
           x="728.13672"
           y="641.87177"
           id="tspan2490">°C</tspan></text>
    </g>
  </g>
</svg>
